<svg width="400" height="498" viewBox="0 0 400 498" fill="none" xmlns="http://www.w3.org/2000/svg">
<circle cx="200" cy="289" r="200" fill="#D9D9D9"/>
<path d="M197.06 325.901C195.475 325.901 194.116 325.448 192.984 324.542L101.607 264.417C99.7951 263.284 98.4363 261.926 97.5305 260.34C96.6246 258.529 96.1717 256.717 96.1717 254.905C96.1717 253.094 96.6246 251.282 97.5305 249.47C98.6628 247.658 100.022 246.3 101.607 245.394L192.984 184.929C194.116 184.023 195.475 183.57 197.06 183.57C199.551 183.57 201.929 184.589 204.194 186.627C206.458 188.665 207.591 191.27 207.591 194.44C207.591 197.61 206.345 199.988 203.854 201.574L123.007 254.905L203.854 308.237C206.345 309.596 207.591 311.974 207.591 315.37C207.591 318.314 206.458 320.806 204.194 322.844C201.929 324.882 199.551 325.901 197.06 325.901Z" fill="black"/>
<path d="M203.94 394.901C205.525 394.901 206.884 394.448 208.016 393.542L299.393 333.417C301.205 332.284 302.564 330.926 303.47 329.34C304.375 327.529 304.828 325.717 304.828 323.905C304.828 322.094 304.375 320.282 303.47 318.47C302.337 316.658 300.978 315.3 299.393 314.394L208.016 253.929C206.884 253.023 205.525 252.57 203.94 252.57C201.449 252.57 199.071 253.589 196.806 255.627C194.542 257.665 193.409 260.27 193.409 263.44C193.409 266.61 194.655 268.988 197.146 270.574L277.993 323.905L197.146 377.237C194.655 378.596 193.409 380.974 193.409 384.37C193.409 387.314 194.542 389.806 196.806 391.844C199.071 393.882 201.449 394.901 203.94 394.901Z" fill="black"/>
</svg>
